<svg width="80" height="80" viewBox="0 0 80 80" fill="none" xmlns="http://www.w3.org/2000/svg">
<path d="M73.601 61.0024H69.401V65.2024H65.201V69.4024H61.001V73.6024H19.001V69.4024H14.801V65.2024H10.601V61.0024H6.401V19.0023H10.601V14.8023H14.801V10.6023H19.001V6.40234H61.001V10.6023H65.201V14.8023H69.401V19.0023H73.601V61.0024Z" fill="#E486EA"/>
<path d="M76 12V8H72V4H68V0H12V4H8V8H4V12H0V68H4V72H8V76H12V80H68V76H72V72H76V68H80V12H76ZM72 60H68V64H64V68H60V72H20V68H16V64H12V60H8V20H12V16H16V12H20V8H60V12H64V16H68V20H72V60Z" fill="white"/>
<path d="M41.5081 25.3516C43.1581 25.356 43.9956 25.3648 44.7187 25.3853L45.0032 25.3956C45.3317 25.4073 45.6559 25.422 46.0475 25.4396C47.608 25.5129 48.6728 25.7593 49.6071 26.1216C50.5751 26.4941 51.3905 26.9986 52.206 27.8126C52.9518 28.5458 53.5289 29.4327 53.8971 30.4116C54.2593 31.3458 54.5057 32.4106 54.5791 33.9726C54.5967 34.3628 54.6113 34.6869 54.6231 35.0169L54.6319 35.3014C54.6539 36.023 54.6627 36.8605 54.6656 38.5105L54.6671 39.6046V41.526C54.6707 42.5958 54.6594 43.6656 54.6333 44.7351L54.6245 45.0196C54.6128 45.3496 54.5981 45.6737 54.5805 46.0639C54.5072 47.6259 54.2579 48.6892 53.8971 49.6249C53.5299 50.6043 52.9527 51.4914 52.206 52.2239C51.4726 52.9694 50.5858 53.5464 49.6071 53.9149C48.6728 54.2772 47.608 54.5236 46.0475 54.5969C45.6995 54.6133 45.3514 54.628 45.0032 54.6409L44.7187 54.6497C43.9956 54.6703 43.1581 54.6805 41.5081 54.6835L40.414 54.6849H38.4941C37.4239 54.6886 36.3536 54.6774 35.2836 54.6512L34.9991 54.6424C34.6509 54.6292 34.3028 54.6141 33.9548 54.5969C32.3943 54.5236 31.3295 54.2772 30.3937 53.9149C29.415 53.5473 28.5285 52.9702 27.7963 52.2239C27.0498 51.4909 26.4722 50.604 26.1037 49.6249C25.7415 48.6907 25.4951 47.6259 25.4217 46.0639C25.4054 45.7158 25.3907 45.3677 25.3777 45.0196L25.3704 44.7351C25.3434 43.6656 25.3311 42.5958 25.3337 41.526V38.5105C25.3296 37.4407 25.3404 36.3709 25.366 35.3014L25.3763 35.0169C25.388 34.6869 25.4027 34.3628 25.4203 33.9726C25.4936 32.4106 25.74 31.3473 26.1023 30.4116C26.4706 29.4317 27.0493 28.5445 27.7977 27.8126C28.5297 27.0668 29.4157 26.4897 30.3937 26.1216C31.3295 25.7593 32.3928 25.5129 33.9548 25.4396C34.3449 25.422 34.6705 25.4073 34.9991 25.3956L35.2836 25.3868C36.3531 25.3607 37.4229 25.3495 38.4927 25.353L41.5081 25.3516ZM40.0004 32.6849C38.0555 32.6849 36.1902 33.4575 34.815 34.8328C33.4397 36.2081 32.6671 38.0733 32.6671 40.0182C32.6671 41.9632 33.4397 43.8284 34.815 45.2037C36.1902 46.579 38.0555 47.3516 40.0004 47.3516C41.9453 47.3516 43.8106 46.579 45.1859 45.2037C46.5611 43.8284 47.3337 41.9632 47.3337 40.0182C47.3337 38.0733 46.5611 36.2081 45.1859 34.8328C43.8106 33.4575 41.9453 32.6849 40.0004 32.6849ZM40.0004 35.6182C40.5782 35.6181 41.1504 35.7319 41.6843 35.9529C42.2181 36.1739 42.7032 36.4979 43.1119 36.9065C43.5205 37.315 43.8447 37.8 44.0659 38.3338C44.2871 38.8676 44.401 39.4397 44.4011 40.0175C44.4012 40.5953 44.2875 41.1675 44.0665 41.7014C43.8455 42.2352 43.5214 42.7204 43.1129 43.129C42.7044 43.5376 42.2194 43.8618 41.6856 44.083C41.1518 44.3042 40.5797 44.4182 40.0019 44.4182C38.8349 44.4182 37.7158 43.9547 36.8906 43.1295C36.0654 42.3044 35.6019 41.1852 35.6019 40.0182C35.6019 38.8513 36.0654 37.7321 36.8906 36.907C37.7158 36.0818 38.8349 35.6182 40.0019 35.6182M47.7019 30.4849C47.2156 30.4849 46.7493 30.6781 46.4055 31.0219C46.0617 31.3657 45.8685 31.832 45.8685 32.3182C45.8685 32.8045 46.0617 33.2708 46.4055 33.6146C46.7493 33.9584 47.2156 34.1516 47.7019 34.1516C48.1881 34.1516 48.6544 33.9584 48.9982 33.6146C49.3421 33.2708 49.5352 32.8045 49.5352 32.3182C49.5352 31.832 49.3421 31.3657 48.9982 31.0219C48.6544 30.6781 48.1881 30.4849 47.7019 30.4849Z" fill="white"/>
</svg>
