<svg width="80" height="80" viewBox="0 0 80 80" fill="none" xmlns="http://www.w3.org/2000/svg">
<path d="M73.601 61.0024H69.401V65.2024H65.201V69.4024H61.001V73.6024H19.001V69.4024H14.801V65.2024H10.601V61.0024H6.401V19.0023H10.601V14.8023H14.801V10.6023H19.001V6.40234H61.001V10.6023H65.201V14.8023H69.401V19.0023H73.601V61.0024Z" fill="#472A8F"/>
<path d="M23 28H30.6947L33.7368 39.6618L36.6 28H43.4L46.2632 39.6618L49.3053 28H57L49.8421 54H43.2211L40 41.7647L36.7789 54H30.1579L23 28Z" fill="white"/>
<path d="M76 12V8H72V4H68V0H12V4H8V8H4V12H0V68H4V72H8V76H12V80H68V76H72V72H76V68H80V12H76ZM72 60H68V64H64V68H60V72H20V68H16V64H12V60H8V20H12V16H16V12H20V8H60V12H64V16H68V20H72V60Z" fill="white"/>
</svg>
