<svg width="80" height="80" viewBox="0 0 80 80" fill="none" xmlns="http://www.w3.org/2000/svg">
<path d="M73.601 61.0024H69.401V65.2024H65.201V69.4024H61.001V73.6024H19.001V69.4024H14.801V65.2024H10.601V61.0024H6.401V19.0023H10.601V14.8023H14.801V10.6023H19.001V6.40234H61.001V10.6023H65.201V14.8023H69.401V19.0023H73.601V61.0024Z" fill="#2081E2"/>
<path d="M23.0491 42.525L23.1973 42.2893L32.1338 28.1432C32.2644 27.9361 32.5714 27.9575 32.6702 28.1825C34.1632 31.5681 35.4514 35.7787 34.8479 38.4001C34.5903 39.4787 33.8844 40.9393 33.0902 42.2893C32.9879 42.4857 32.875 42.6786 32.7549 42.8643C32.6985 42.95 32.6032 43 32.5008 43H23.3102C23.0632 43 22.9185 42.7286 23.0491 42.525Z" fill="white"/>
<path d="M63 44.9275V47.1917C63 47.3216 62.9212 47.4372 62.8065 47.4878C62.1042 47.7911 59.6998 48.9033 58.7 50.3044C56.1487 53.883 54.1994 59 49.842 59H31.6637C25.2209 59 20 53.7206 20 47.2061V46.9967C20 46.8233 20.1397 46.6825 20.3117 46.6825H30.4454C30.6461 46.6825 30.793 46.8703 30.7751 47.0689C30.7034 47.7333 30.8253 48.4122 31.137 49.0297C31.739 50.2611 32.986 51.0303 34.3333 51.0303H39.35V47.0833H34.3906C34.1363 47.0833 33.9858 46.7872 34.1327 46.5778C34.1864 46.4947 34.2474 46.4081 34.3118 46.3106C34.7813 45.6389 35.4513 44.5953 36.1178 43.4072C36.5729 42.6056 37.0136 41.7497 37.3684 40.8903C37.4401 40.735 37.4974 40.5761 37.5547 40.4208C37.6515 40.1464 37.7519 39.89 37.8235 39.6336C37.8952 39.4169 37.9525 39.1894 38.0098 38.9764C38.1783 38.2469 38.2499 37.4741 38.2499 36.6725C38.2499 36.3583 38.2356 36.0297 38.2069 35.7156C38.1926 35.3725 38.1496 35.0294 38.1066 34.6864C38.0779 34.383 38.0242 34.0833 37.9668 33.7692C37.8952 33.3105 37.7948 32.8556 37.6802 32.3969L37.6407 32.2236C37.5547 31.9094 37.4831 31.6097 37.3828 31.2956C37.0996 30.3097 36.7736 29.3492 36.4296 28.45C36.3042 28.0925 36.1608 27.7495 36.0175 27.4064C35.8061 26.89 35.5911 26.4206 35.394 25.9764C35.2937 25.7742 35.2077 25.59 35.1217 25.4022C35.0249 25.1892 34.9246 24.9761 34.8242 24.7739C34.7526 24.6186 34.6702 24.4742 34.6128 24.3297L34.0001 23.1886C33.9141 23.0333 34.0574 22.8492 34.2258 22.8961L38.06 23.9433H38.0708C38.0779 23.9433 38.0815 23.947 38.0851 23.947L38.5903 24.0878L39.1458 24.2467L39.35 24.3044V22.0078C39.35 20.8992 40.2315 20 41.3209 20C41.8655 20 42.36 20.2239 42.7148 20.5886C43.0695 20.9533 43.2917 21.4517 43.2917 22.0078V25.4167L43.7002 25.5322C43.7324 25.5431 43.7647 25.5575 43.7933 25.5792C43.8937 25.655 44.037 25.7669 44.2197 25.9042C44.3631 26.0197 44.5172 26.1606 44.7035 26.305C45.0726 26.6047 45.5133 26.9911 45.9971 27.4353C46.1261 27.5472 46.2515 27.6628 46.3662 27.7783C46.9897 28.3633 47.6884 29.0494 48.355 29.8078C48.5413 30.0208 48.724 30.2375 48.9103 30.465C49.0967 30.6961 49.2938 30.9236 49.4657 31.1511C49.6915 31.4545 49.9352 31.7686 50.1466 32.0972C50.2469 32.2525 50.3616 32.4114 50.4583 32.5667C50.7307 32.9819 50.9708 33.4117 51.2001 33.8414C51.2969 34.04 51.3972 34.2566 51.4832 34.4697C51.7376 35.0439 51.9383 35.6289 52.0672 36.2139C52.1067 36.3403 52.1353 36.4775 52.1497 36.6003V36.6292C52.1927 36.8025 52.207 36.9867 52.2213 37.1744C52.2787 37.7739 52.25 38.3733 52.121 38.9764C52.0672 39.2328 51.9956 39.4747 51.9096 39.7311C51.8236 39.9767 51.7376 40.233 51.6265 40.475C51.4115 40.9769 51.1571 41.4789 50.8561 41.9483C50.7593 42.1217 50.6447 42.3058 50.53 42.4792C50.4046 42.6633 50.2756 42.8366 50.1609 43.0064C50.0033 43.2231 49.8349 43.4505 49.6629 43.6528C49.5088 43.8658 49.3511 44.0789 49.1791 44.2667C48.939 44.5519 48.7097 44.8228 48.4696 45.0828C48.3263 45.2525 48.1722 45.4258 48.0145 45.5811C47.8605 45.7544 47.7027 45.9097 47.5594 46.0541C47.3194 46.2961 47.1187 46.4839 46.9502 46.6391L46.5561 47.0039C46.4988 47.0545 46.4235 47.0833 46.3447 47.0833H43.2917V51.0303H47.133C47.993 51.0303 48.81 50.7233 49.4694 50.16C49.6951 49.9614 50.6805 49.102 51.8451 47.8056C51.8845 47.7622 51.9347 47.7297 51.992 47.7153L62.6023 44.6242C62.7994 44.5664 63 44.718 63 44.9275Z" fill="white"/>
<path d="M76 12V8H72V4H68V0H12V4H8V8H4V12H0V68H4V72H8V76H12V80H68V76H72V72H76V68H80V12H76ZM72 60H68V64H64V68H60V72H20V68H16V64H12V60H8V20H12V16H16V12H20V8H60V12H64V16H68V20H72V60Z" fill="white"/>
</svg>
