<svg width="80" height="80" viewBox="0 0 80 80" fill="none" xmlns="http://www.w3.org/2000/svg">
<path d="M73.601 61.0024H69.401V65.2024H65.201V69.4024H61.001V73.6024H19.001V69.4024H14.801V65.2024H10.601V61.0024H6.401V19.0023H10.601V14.8023H14.801V10.6023H19.001V6.40234H61.001V10.6023H65.201V14.8023H69.401V19.0023H73.601V61.0024Z" fill="#E42575"/>
<g clip-path="url(#clip0_633_314)">
<path d="M20.0019 39.6314C20.0019 36.5119 19.9965 33.3915 20.0046 30.272C20.0082 28.9189 20.755 27.7341 21.9913 27.2366C23.0905 26.7952 24.1081 26.9841 25.0253 27.6967C25.487 28.0558 25.8779 28.5158 26.293 28.9385C27.2891 29.954 28.2825 30.9714 29.2723 31.9925C30.0335 32.7771 30.7875 33.5701 31.5487 34.3556C32.1789 35.0064 32.8119 35.6544 33.4494 36.2987C33.7425 36.5951 33.8878 36.583 34.1317 36.237C34.5548 35.6376 34.9646 35.027 35.3868 34.4266C35.9678 33.6 36.5586 32.7808 37.1387 31.9533C37.8237 30.977 38.4871 29.983 39.1909 29.0217C39.5496 28.5327 39.8248 27.9566 40.3493 27.62C40.6192 27.447 40.8998 27.2703 41.1983 27.1749C41.5211 27.072 41.8708 27.0178 42.2088 27.0169C47.1345 27.0075 52.0611 27.0075 56.9868 27.0122C58.0635 27.0131 58.9574 27.4433 59.5563 28.3943C59.9983 29.0975 60.1014 29.8652 59.9033 30.7105C59.6477 31.7962 58.4849 32.88 57.2934 32.8846C56.3457 32.8884 55.3989 32.8921 54.4513 32.8959C53.258 32.9005 52.0655 32.9071 50.8722 32.9099C50.1478 32.9118 49.4243 32.9033 48.7007 32.9174C48.5779 32.9202 48.4112 32.9838 48.3448 33.0791C48.2453 33.2222 48.3296 33.3784 48.4425 33.5158C49.1436 34.3715 49.8349 35.2364 50.5351 36.0939C50.8534 36.4838 51.1914 36.856 51.5043 37.2497C51.9499 37.8098 52.2135 38.456 52.3345 39.176C52.46 39.9222 52.2762 40.6002 51.8692 41.1809C51.2775 42.0253 50.6203 42.8192 49.9846 43.6299C49.5614 44.1704 49.1284 44.7034 48.6981 45.2383C48.6021 45.357 48.4892 45.4608 48.3995 45.5833C48.2094 45.8414 48.3206 46.1145 48.6326 46.1622C48.7276 46.1762 48.8263 46.1706 48.9231 46.1706C51.6549 46.1706 54.3867 46.164 57.1185 46.1743C58.3952 46.179 59.2918 46.8345 59.8199 48.0249C59.9284 48.269 59.9579 48.5701 59.9553 48.8441C59.9409 50.0746 59.4227 51.0238 58.363 51.5708C57.9774 51.77 57.5059 51.8654 57.0719 51.87C54.4522 51.8962 51.8324 51.8822 49.2127 51.8822C47.13 51.8822 45.0482 51.899 42.9655 51.8738C42.1236 51.8635 41.2934 51.6896 40.6192 51.1164C39.8938 50.4992 39.6105 49.6819 39.7809 48.7085C39.9028 48.0118 40.2336 47.4143 40.612 46.8467C41.2736 45.8527 41.9461 44.8661 42.6301 43.8889C43.2577 42.9922 43.9077 42.1132 44.5461 41.2248C44.8796 40.7601 45.2113 40.2944 45.5404 39.8259C45.7116 39.5818 45.7107 39.4491 45.5251 39.2209C44.8267 38.3625 44.122 37.5078 43.4218 36.6512C43.0497 36.1958 42.6812 35.7376 42.3083 35.2841C42.0806 35.0073 41.8959 34.9204 41.6708 35.2495C41.2396 35.8816 40.7787 36.4913 40.3305 37.1104C39.7522 37.9089 39.1721 38.7057 38.5974 39.5061C37.8174 40.5927 37.0464 41.6858 36.261 42.7668C36.0691 43.0314 35.8557 43.2877 35.6164 43.5037C35.2882 43.8001 34.8767 43.9273 34.449 43.9759C33.652 44.0657 32.8953 43.9291 32.2453 43.4167C31.9082 43.1511 31.6096 42.8304 31.3084 42.519C30.1061 41.2744 28.911 40.0223 27.7105 38.7758C27.3725 38.4251 27.0228 38.0857 26.6804 37.7397C26.5656 37.6237 26.4419 37.5508 26.2787 37.6172C26.1066 37.6864 26.0904 37.8454 26.0886 38.0034C26.085 38.4859 26.0886 38.9684 26.0868 39.4509C26.0823 41.1294 26.077 42.807 26.0725 44.4855C26.0689 45.8592 26.0644 47.2338 26.0635 48.6075C26.0626 50.1382 25.0325 51.4577 23.676 51.8803C23.0798 52.0664 22.4952 52.0271 21.9044 51.8065C20.9092 51.4362 20.3193 50.7096 20.1077 49.6538C20.0288 49.263 20.0126 48.8534 20.0117 48.4532C20.0037 45.5123 20.0073 42.5714 20.0073 39.6305H20.0019V39.6314Z" fill="white"/>
</g>
<path d="M76 12V8H72V4H68V0H12V4H8V8H4V12H0V68H4V72H8V76H12V80H68V76H72V72H76V68H80V12H76ZM72 60H68V64H64V68H60V72H20V68H16V64H12V60H8V20H12V16H16V12H20V8H60V12H64V16H68V20H72V60Z" fill="white"/>
<defs>
<clipPath id="clip0_633_314">
<rect width="40" height="25" fill="white" transform="translate(20 27)"/>
</clipPath>
</defs>
</svg>
